<?xml version="1.0" encoding="utf-8"?>
<!-- Generator: Adobe Illustrator 16.0.0, SVG Export Plug-In . SVG Version: 6.00 Build 0)  -->
<!DOCTYPE svg PUBLIC "-//W3C//DTD SVG 1.1//EN" "http://www.w3.org/Graphics/SVG/1.1/DTD/svg11.dtd">
<svg version="1.1" xmlns="http://www.w3.org/2000/svg" xmlns:xlink="http://www.w3.org/1999/xlink" x="0px" y="0px" width="173px"
	 height="173px" viewBox="0 0 173 173" enable-background="new 0 0 173 173" xml:space="preserve">
<g id="Horizon">
	<rect x="0.5" y="116.166" fill="#71CAC3" width="172" height="56.335"/>
	<rect x="0.5" y="0.5" fill="#D7E6F1" width="171.484" height="95.164"/>
</g>
<g id="Montagne">
	<g>
		<path fill-rule="evenodd" clip-rule="evenodd" fill="#A5A5A5" d="M170.925,87.813c-9.334-4-10.758-5.147-20.091-9.147
			c-10.667-4-21.334-9.333-32.667-13.999c-8.667-3.332-18-7.33-26-13.328c-6.667-4.667-14.667-7.333-22-11.333
			c-2.667-1.333-4.667-2.667-7.333-2.667c-3.333,0-4.667,1.333-7.333,4c-2,2-4,4.667-6.667,6c-3.333,2-8,3.333-11.333,5.333
			c-4,2-8,4.665-12,6.664S18.167,64.667,14.833,66c-4,0.666-8.645,0.006-12.645,0.006"/>
		<g>
			<path fill="#A5A5A5" d="M171.871,86.194c-14.102-6.095-28.168-12.329-42.199-18.589c-8.15-3.637-16.573-6.676-24.587-10.606
				c-7.914-3.881-14.731-9.421-22.722-13.195c-3.768-1.78-7.566-3.464-11.25-5.417c-3.167-1.679-5.948-3.067-9.596-2.841
				c-6.128,0.38-9.935,8.135-14.938,10.896c-3.221,1.777-6.795,2.829-10.026,4.611c-4.003,2.209-7.941,4.558-12,6.664
				c-3.329,1.728-6.184,4.189-9.415,6.077c-3.236,1.89-9.368,0.401-12.95,0.337c-2.419-0.043-2.416,3.707,0,3.75
				c3.713,0.065,7.403,0.398,11.117,0.186c2.962-0.171,5.193-1.864,7.558-3.53c6.274-4.422,13.371-8.31,20.292-11.642
				c3.332-1.604,6.719-2.793,9.906-4.706c2.656-1.594,4.66-4.43,6.836-6.586c4.187-4.149,8.533-1.458,12.904,0.859
				c4.19,2.221,8.596,4.031,12.857,6.109c7.359,3.589,13.712,8.81,21.092,12.429c7.488,3.672,15.406,6.458,23.028,9.841
				c14.047,6.235,28.096,12.494,42.199,18.59C172.174,90.38,174.086,87.151,171.871,86.194L171.871,86.194z"/>
		</g>
	</g>
	<polyline fill="#0B6735" points="172.5,86.368 172.5,116.166 0.5,116.166 0.5,63.933 	"/>
	<path fill-rule="evenodd" clip-rule="evenodd" fill="#0B6735" d="M1.5,64.463"/>
	<path fill-rule="evenodd" clip-rule="evenodd" fill="#0B6735" d="M14.991,64.136"/>
	<path fill-rule="evenodd" clip-rule="evenodd" fill="#0B6735" d="M172.5,86.497c-0.359-0.267-33.453-14.706-38.391-16.956
		S32.984,53.36,31.609,53.922c-1.375,0.563-5.375,1.687-10.875,6.122c-5.5,4.436-7.422,4.326-9.75,4.356s-9.969-0.312-9.969-0.312
		v4.424"/>
</g>
<g id="Bateau">
	<g>
		<g enable-background="new    ">
			<defs>
				<polygon id="SVGID_1_" enable-background="new    " points="28.666,165.538 28.923,28.243 162.995,9.398 162.738,146.693 				
					"/>
			</defs>
			<clipPath id="SVGID_2_">
				<use xlink:href="#SVGID_1_"  overflow="visible"/>
			</clipPath>
			<g clip-path="url(#SVGID_2_)">
				<g>
					<g>
						<g>
							<path fill="#045C6A" d="M128.997,20.028c-4.959,0.697-9.28,3.725-12.143,5.735c-0.714,0.498-1.299,0.909-1.813,1.223
								l1.834,4.418l-0.336-0.298c6.642,19.622,6.178,40.442-1.405,62.028c30.94-11.86,38.373-29.839,42.83-40.734
								c3.401-11.845,3.625-15.619-2.209-22.346c-4.477-4.135-15.302-11.547-24.516-10.252c-0.148,0.02-0.294,0.043-0.441,0.068
								l-0.088,0.013l-0.088,0.004C130.095,19.9,129.542,19.952,128.997,20.028"/>
							<path fill="#00507F" d="M116.876,31.405l-1.834-4.418c0.514-0.314,1.099-0.725,1.813-1.223
								c2.862-2.011,7.184-5.039,12.143-5.735c0.545-0.077,1.098-0.128,1.626-0.142l0.088-0.004l0.088-0.013
								c0.147-0.025,0.293-0.048,0.441-0.068c9.214-1.294,20.039,6.118,24.516,10.252c5.834,6.727,5.61,10.501,2.209,22.346
								c-4.457,10.895-11.89,28.874-42.83,40.734c7.583-21.586,8.047-42.406,1.405-62.028L116.876,31.405 M129.002,17.141
								c-5.614,0.789-10.474,4.195-13.376,6.237c-0.538,0.378-1.171,0.822-1.62,1.109l-0.519-1.24l-0.014,7.624
								c6.758,18.797,6.722,38.765-0.111,59.475l-0.013,6.402c34.301-12.35,42.606-32.645,47.072-43.561l0.057-0.172
								c3.691-12.828,3.78-17.681-2.716-25.144l-0.088-0.083c-4.706-4.385-16.264-12.303-26.424-10.874
								c-0.144,0.02-0.288,0.042-0.431,0.066C130.22,17.004,129.611,17.055,129.002,17.141 M110.785,16.78l0.039,0.394l0.001-0.299
								L110.785,16.78"/>
							<path fill="#00507F" d="M113.501,16.355l-2.676,0.376v0.144l-0.001,0.299l-0.004,2.443c0.39-0.136,0.777-0.259,1.161-0.368
								l1.515-0.429L113.501,16.355"/>
							<path fill="#EE3532" d="M132.853,108.204c-5.426,0.763-12.119,2.033-19.531,3.631l-0.014,7.343l-2.675,0.376l0.014-7.136
								c-27.116,5.988-62.565,15.878-81.032,21.334l-0.028,14.671c5.496-0.776,10.934-1.621,16.283-2.528
								c38.708-6.597,72.063-16.381,88.988-25.754c5.207-2.899,8.795-5.717,10.57-8.333c0.308-0.457,0.563-0.91,0.761-1.358
								l0.049-0.102c0.269-0.624,0.42-1.239,0.453-1.831C145.629,107.064,140.499,107.129,132.853,108.204"/>
							<path fill="#00507F" d="M147.602,108.181c-0.015,0.801-0.2,1.625-0.556,2.459c-0.001,0.023-0.001,0.045-0.002,0.067
								C147.869,109.527,147.83,108.704,147.602,108.181 M110.647,111.456c-33.689,7.371-78.601,20.602-81.544,21.477l0.063,0.466
								l0.448-0.063l0,0.417c18.467-5.456,53.917-15.346,81.032-21.334L110.647,111.456 M132.009,107.445
								c-5.338,0.75-11.734,1.952-18.686,3.433l-0.002,0.957c7.412-1.598,14.105-2.868,19.531-3.631
								c7.646-1.074,12.776-1.14,13.838,0.313c0.003-0.045,0.006-0.091,0.007-0.136l0.013-0.004
								c0.002-0.055,0.003-0.109,0.003-0.162l0.848-0.119c-0.01-0.02-0.021-0.038-0.03-0.056
								C146.481,106.196,140.619,106.234,132.009,107.445"/>
							<path fill="#00507F" d="M134.857,120.14c-16.925,9.373-50.28,19.157-88.988,25.754c25.159-4.264,48.378-9.895,66.642-16.207
								C121.695,126.51,129.225,123.278,134.857,120.14 M146.71,108.376l-0.013,0.004c-0.001,0.045-0.004,0.091-0.007,0.136
								c-0.033,0.592-0.185,1.207-0.453,1.831l-0.049,0.102c-0.198,0.448-0.453,0.901-0.761,1.358
								C146.235,110.618,146.669,109.47,146.71,108.376"/>
							<path fill="#00507F" d="M29.615,133.334l-0.448,0.063l-0.441,0.062l-0.029,15.572l0.001-0.484l0.441-0.062
								c0.15-0.021,0.298-0.042,0.448-0.063l0.028-14.671L29.615,133.334"/>
							<polyline fill="#00507F" points="113.343,100.465 110.668,100.841 110.647,111.456 110.646,112.417 110.633,119.553 
								113.308,119.177 113.321,111.834 113.323,110.877 113.343,100.465 							"/>
							<path fill="#FFFFFF" d="M110.814,22.558c-9.256,3.497-22.116,15.815-36.453,34.98c-5.668,7.436-11.16,15.399-16.476,23.104
								C51.02,90.59,44.5,100.046,37.806,108.197l72.867-10.243L110.814,22.558"/>
							<path fill="#00507F" d="M37.806,108.197c6.694-8.15,13.214-17.606,20.079-27.554c5.316-7.705,10.808-15.669,16.476-23.104
								c14.337-19.165,27.197-31.483,36.453-34.98l-0.142,75.396L37.806,108.197 M113.496,18.819l-1.515,0.429
								c-0.384,0.109-0.771,0.232-1.161,0.368C97.557,24.239,81.136,44.187,72.386,55.88c-5.708,7.483-11.224,15.486-16.564,23.229
								C48.21,90.147,41.024,100.57,33.6,109.185l-2.432,2.831l79.5-11.175l2.675-0.376l0.007-3.718l0.013-6.402l0.111-59.475
								l0.014-7.624L113.496,18.819"/>
							<path fill="#FFFFFF" d="M146.049,112.396c-9.082,13.094-56.958,28.588-116.464,36.995l-0.028,15.062l23.181-3.258
								C102.776,154.162,143.776,132.545,146.049,112.396"/>
							<path fill="#00507F" d="M29.557,164.453l0.028-15.062c59.506-8.407,107.382-23.901,116.464-36.995
								c-2.272,20.149-43.273,41.766-93.311,48.799L29.557,164.453 M147.603,108.089l-0.042,0.006l-0.848,0.119
								c0,0.053-0.001,0.107-0.003,0.162c-0.041,1.094-0.475,2.241-1.282,3.431c-1.775,2.616-5.363,5.434-10.57,8.333
								c-5.633,3.138-13.162,6.37-22.346,9.547C94.248,136,71.028,141.63,45.87,145.894c-5.349,0.907-10.788,1.752-16.283,2.528
								c-0.15,0.021-0.298,0.042-0.448,0.063l-0.441,0.062l-0.001,0.484l-0.031,16.506l24.07-3.383
								c51.824-7.285,94.048-30.342,94.308-51.447c0.001-0.022,0.001-0.044,0.002-0.067c0.355-0.834,0.541-1.658,0.556-2.459
								C147.602,108.15,147.602,108.12,147.603,108.089"/>
						</g>
					</g>
				</g>
			</g>
		</g>
	</g>
</g>
<g id="Carre">
	<rect x="0.5" y="0.5" fill="none" stroke="#00507F" stroke-miterlimit="10" width="172" height="172"/>
</g>
</svg>
